<svg class="main-svg" xmlns="http://www.w3.org/2000/svg" xmlns:xlink="http://www.w3.org/1999/xlink" width="700" height="450" viewBox="0 0 700 450" style=""><rect x="0" y="0" width="700" height="450" style="fill: rgb(255, 255, 255); fill-opacity: 1;"/><defs id="defs-ac5405"><g class="clips"><clipPath id="clipac5405xyplot" class="plotclip"><rect width="464" height="330"/></clipPath><clipPath class="axesclip" id="clipac5405x"><rect x="60" y="0" width="464" height="450"/></clipPath><clipPath class="axesclip" id="clipac5405y"><rect x="0" y="60" width="700" height="330"/></clipPath><clipPath class="axesclip" id="clipac5405xy"><rect x="60" y="60" width="464" height="330"/></clipPath></g><g class="gradients"/></defs><g class="bglayer"/><g class="layer-below"><g class="imagelayer"/><g class="shapelayer"/></g><g class="cartesianlayer"><g class="subplot xy"><g class="layer-subplot"><g class="shapelayer"/><g class="imagelayer"/></g><g class="gridlayer"><g class="x"><path class="xgrid crisp" transform="translate(150.1,0)" d="M0,60v330" style="stroke: rgb(238, 238, 238); stroke-opacity: 1; stroke-width: 1px;"/><path class="xgrid crisp" transform="translate(240.19,0)" d="M0,60v330" style="stroke: rgb(238, 238, 238); stroke-opacity: 1; stroke-width: 1px;"/><path class="xgrid crisp" transform="translate(330.29,0)" d="M0,60v330" style="stroke: rgb(238, 238, 238); stroke-opacity: 1; stroke-width: 1px;"/><path class="xgrid crisp" transform="translate(420.39,0)" d="M0,60v330" style="stroke: rgb(238, 238, 238); stroke-opacity: 1; stroke-width: 1px;"/><path class="xgrid crisp" transform="translate(510.49,0)" d="M0,60v330" style="stroke: rgb(238, 238, 238); stroke-opacity: 1; stroke-width: 1px;"/></g><g class="y"><path class="ygrid crisp" transform="translate(0,293.69)" d="M60,0h464" style="stroke: rgb(238, 238, 238); stroke-opacity: 1; stroke-width: 1px;"/><path class="ygrid crisp" transform="translate(0,212.44)" d="M60,0h464" style="stroke: rgb(238, 238, 238); stroke-opacity: 1; stroke-width: 1px;"/><path class="ygrid crisp" transform="translate(0,131.19)" d="M60,0h464" style="stroke: rgb(238, 238, 238); stroke-opacity: 1; stroke-width: 1px;"/></g></g><g class="zerolinelayer"><path class="xzl zl crisp" transform="translate(60,0)" d="M0,60v330" style="stroke: rgb(68, 68, 68); stroke-opacity: 1; stroke-width: 1px;"/><path class="yzl zl crisp" transform="translate(0,374.94)" d="M60,0h464" style="stroke: rgb(68, 68, 68); stroke-opacity: 1; stroke-width: 1px;"/></g><path class="xlines-below"/><path class="ylines-below"/><g class="overlines-below"/><g class="xaxislayer-below"/><g class="yaxislayer-below"/><g class="overaxes-below"/><g class="plot" transform="translate(60, 60)" clip-path="url(#clipac5405xyplot)"><g class="scatterlayer mlayer"><g class="trace scatter trace1437c8" style="stroke-miterlimit: 2; opacity: 1;"><g class="fills"/><g class="errorbars"/><g class="lines"><path class="js-line" d="M0,16.5L4.5,143.11L9.01,185.62L13.51,193L18.02,195.5L22.52,197.37L27.03,198.26L31.53,198.21L36.04,199.75L49.55,200.37L54.06,191.73L58.56,185.13L63.07,200.71L67.57,196.11L72.08,183.63L76.58,197.56L81.09,201.1L90.1,195.86L94.6,190.97L99.11,184.63L103.61,195.31L108.12,202.08L112.62,201.7L126.14,202.18L130.64,202L148.66,202.5L153.17,202.51L157.67,203.07L162.17,202.49L166.68,194.82L171.18,198.2L175.69,203.35L180.19,202.95L184.7,203.58L189.2,203.34L202.72,203.23L207.22,203.37L220.74,203.56L225.24,200.5L229.75,203.38L234.25,203.31L247.77,203.79L252.27,203.65L265.79,203.9L270.29,203.34L301.83,203.74L306.33,199.53L310.83,195.41L315.34,204.27L324.35,203.47L328.85,203.63L333.36,204.13L337.86,203.77L346.87,203.96L351.38,203.23L360.39,203.69L364.89,203.27L396.43,204.4L400.93,204.11L409.94,203.81L414.45,204.2L427.96,204.24L432.47,204.27L445.98,204.26L450.49,204.23L464,204.15" style="vector-effect: non-scaling-stroke; fill: none; stroke: rgb(31, 119, 180); stroke-opacity: 1; stroke-width: 2px; opacity: 1;"/></g><g class="points"/><g class="text"/></g><g class="trace scatter trace6d1b91" style="stroke-miterlimit: 2; opacity: 1;"><g class="fills"/><g class="errorbars"/><g class="lines"><path class="js-line" d="M0,238.26L4.5,307.34L9.01,309.78L18.02,311.01L22.52,311.23L54.06,312.01L58.56,311.97L90.1,312.48L94.6,312.53L139.65,312.59L144.16,312.75L310.83,312.73L315.34,313.11L324.35,312.77L328.85,312.77L346.87,312.98L351.38,312.7L382.91,313.05L387.42,312.91L400.93,312.92L405.44,312.67L418.95,313.08L423.46,312.76L436.97,313.08L441.48,312.94L464,312.9" style="vector-effect: non-scaling-stroke; fill: none; stroke: rgb(255, 127, 14); stroke-opacity: 1; stroke-width: 2px; opacity: 1;"/></g><g class="points"/><g class="text"/></g><g class="trace scatter tracef25953" style="stroke-miterlimit: 2; opacity: 1;"><g class="fills"/><g class="errorbars"/><g class="lines"><path class="js-line" d="M0,195.04L4.5,211.08L9.01,213.29L18.02,214.82L22.52,215.19L54.06,216.14L58.56,216.17L198.21,217.34L202.72,217.32L364.89,217.68L369.4,217.69L464,217.84" style="vector-effect: non-scaling-stroke; fill: none; stroke: rgb(44, 160, 44); stroke-opacity: 1; stroke-width: 2px; opacity: 1;"/></g><g class="points"/><g class="text"/></g><g class="trace scatter trace1ccdb5" style="stroke-miterlimit: 2; opacity: 1;"><g class="fills"/><g class="errorbars"/><g class="lines"><path class="js-line" d="M0,213.08L9.01,292.43L13.51,297.96L22.52,300.82L27.03,301.28L31.53,300.93L36.04,302.03L49.55,302.12L54.06,293.45L58.56,286.87L63.07,302.21L67.57,297.56L72.08,284.89L76.58,298.8L81.09,302.1L90.1,296.8L94.6,291.82L99.11,285.48L103.61,296.13L108.12,302.61L112.62,302.29L121.63,302.52L126.14,302.49L153.17,302.7L157.67,303.04L162.17,302.62L166.68,294.96L171.18,298.16L175.69,303.2L180.19,302.78L184.7,303.26L202.72,302.89L207.22,302.99L220.74,303.14L225.24,300.16L229.75,302.88L234.25,302.99L256.78,303.24L261.28,302.97L274.8,302.98L279.3,303.19L292.82,303.07L297.32,303.33L301.83,303.1L306.33,298.92L310.83,294.92L315.34,303.38L328.85,303.08L333.36,303.34L337.86,302.94L342.37,303.34L355.88,302.94L360.39,303.15L369.4,302.93L373.9,303.23L400.93,303.27L405.44,303.04L464,303.3" style="vector-effect: non-scaling-stroke; fill: none; stroke: rgb(214, 39, 40); stroke-opacity: 1; stroke-width: 2px; opacity: 1;"/></g><g class="points"/><g class="text"/></g><g class="trace scatter trace227f25" style="stroke-miterlimit: 2; opacity: 1;"><g class="fills"/><g class="errorbars"/><g class="lines"><path class="js-line" d="M0,186.4L4.5,284.2L9.01,292.14L13.51,292.7L18.02,297.47L36.04,299.17L40.54,293.39L45.05,299.21L49.55,299.73L54.06,275.17L58.56,295.69L63.07,299.03L67.57,277.38L72.08,276.51L76.58,299.51L81.09,297.92L85.59,275.73L90.1,298.72L94.6,276.35L99.11,277.65L103.61,300.24L108.12,294.61L112.62,299.82L121.63,300.35L126.14,297.25L130.64,300.58L135.15,299.44L139.65,300.29L144.16,299.79L148.66,300.2L153.17,298.65L157.67,300.5L162.17,299.27L166.68,277.56L171.18,299.4L175.69,300.41L180.19,298.42L189.2,298.44L193.71,300.04L198.21,298.87L202.72,300.56L207.22,299.18L211.73,298.87L216.23,300.28L220.74,300.34L225.24,276.05L229.75,294.41L234.25,300.36L238.76,298.81L243.26,299.02L247.77,300.36L261.28,300.34L265.79,299.46L270.29,299.96L274.8,299.26L279.3,300.51L283.81,299.58L297.32,300.49L301.83,296.6L306.33,276.82L310.83,300.46L324.35,300.3L328.85,300.63L337.86,300.68L342.37,298.97L346.87,300.64L351.38,300.7L369.4,300.75L373.9,300.04L378.41,300.71L382.91,300.35L391.92,299.52L396.43,299.5L400.93,298.83L405.44,300.48L409.94,300.14L414.45,299.01L418.95,300.47L423.46,300.56L441.48,300.71L445.98,299.55L450.49,299.13L454.99,300.07L464,300.82" style="vector-effect: non-scaling-stroke; fill: none; stroke: rgb(148, 103, 189); stroke-opacity: 1; stroke-width: 2px; opacity: 1;"/></g><g class="points"/><g class="text"/></g><g class="trace scatter tracebd2c37" style="stroke-miterlimit: 2; opacity: 1;"><g class="fills"/><g class="errorbars"/><g class="lines"><path class="js-line" d="M0,303.14L4.5,309.07L9.01,310.05L36.04,311.91L40.54,310.88L49.55,312.25L54.06,311.41L58.56,311.51L63.07,312.39L76.58,311.98L81.09,309.16L85.59,312.31L90.1,312.67L117.13,312.71L121.63,312.69L126.14,310.77L130.64,312.91L139.65,311.61L144.16,312.69L180.19,312.74L184.7,312.31L189.2,312.16L193.71,312.88L198.21,312.58L202.72,313.19L207.22,311.61L211.73,312.54L220.74,313.17L225.24,312.3L229.75,307.7L234.25,313.39L238.76,311.73L243.26,313.33L252.27,313.01L256.78,313.19L270.29,312.86L274.8,311.92L279.3,313.41L283.81,312.94L297.32,313.15L301.83,312.07L310.83,313.28L315.34,313.12L337.86,313.5L342.37,311.62L346.87,313.44L351.38,313.35L373.9,312.71L378.41,313.26L387.42,312.94L391.92,312.66L396.43,311.99L400.93,310.34L405.44,313.21L409.94,313.33L414.45,312.77L418.95,313.37L427.96,313.2L432.47,313.41L441.48,313.29L445.98,313.42L454.99,312.55L459.5,313.15L464,313.42" style="vector-effect: non-scaling-stroke; fill: none; stroke: rgb(140, 86, 75); stroke-opacity: 1; stroke-width: 2px; opacity: 1;"/></g><g class="points"/><g class="text"/></g><g class="trace scatter traced21f7c" style="stroke-miterlimit: 2; opacity: 1;"><g class="fills"/><g class="errorbars"/><g class="lines"><path class="js-line" d="M0,174.6L4.5,278.33L9.01,287.25L13.51,288.16L18.02,293.35L27.03,294.57L31.53,295.19L36.04,296.14L40.54,289.33L45.05,296.21L49.55,297.05L54.06,271.64L58.56,292.26L63.07,296.48L67.57,274.74L72.08,273.8L76.58,296.55L81.09,292.14L85.59,273.09L90.1,296.45L94.6,273.97L99.11,275.52L103.61,298.01L108.12,291.96L112.62,297.75L121.63,298.1L126.14,293.09L130.64,298.55L135.15,296.5L148.66,297.96L153.17,296.52L157.67,298.56L162.17,297.29L166.68,275.72L171.18,296.81L175.69,298.07L180.19,296.22L189.2,295.66L193.71,297.98L198.21,296.52L202.72,298.82L207.22,295.85L211.73,296.47L216.23,298.49L220.74,298.57L225.24,273.41L229.75,287.18L234.25,298.81L238.76,295.61L247.77,298.43L252.27,298.33L261.28,298.63L265.79,297.37L270.29,297.88L274.8,296.24L279.3,298.98L283.81,297.58L288.31,298.14L292.82,297.72L297.32,298.7L301.83,293.73L306.33,274.93L310.83,298.8L315.34,298.36L319.84,298.98L324.35,298.25L328.85,298.96L337.86,299.24L342.37,295.66L346.87,299.13L351.38,299.11L369.4,299.21L373.9,297.82L378.41,299.04L382.91,298.74L391.92,297.24L396.43,296.56L400.93,294.23L405.44,298.75L409.94,298.53L414.45,296.84L418.95,298.91L423.46,298.73L441.48,299.07L445.98,298.02L450.49,297.23L454.99,297.68L459.5,298.92L464,299.3" style="vector-effect: non-scaling-stroke; fill: none; stroke: rgb(227, 119, 194); stroke-opacity: 1; stroke-width: 2px; opacity: 1;"/></g><g class="points"/><g class="text"/></g></g></g><g class="overplot"/><path class="xlines-above crisp" d="M0,0" style="fill: none;"/><path class="ylines-above crisp" d="M0,0" style="fill: none;"/><g class="overlines-above"/><g class="xaxislayer-above"><g class="xtick"><text text-anchor="middle" x="0" y="403" transform="translate(60,0)" style="font-family: 'Open Sans', verdana, arial, sans-serif; font-size: 12px; fill: rgb(68, 68, 68); fill-opacity: 1; white-space: pre;">0</text></g><g class="xtick"><text text-anchor="middle" x="0" y="403" transform="translate(150.1,0)" style="font-family: 'Open Sans', verdana, arial, sans-serif; font-size: 12px; fill: rgb(68, 68, 68); fill-opacity: 1; white-space: pre;">20</text></g><g class="xtick"><text text-anchor="middle" x="0" y="403" transform="translate(240.19,0)" style="font-family: 'Open Sans', verdana, arial, sans-serif; font-size: 12px; fill: rgb(68, 68, 68); fill-opacity: 1; white-space: pre;">40</text></g><g class="xtick"><text text-anchor="middle" x="0" y="403" transform="translate(330.29,0)" style="font-family: 'Open Sans', verdana, arial, sans-serif; font-size: 12px; fill: rgb(68, 68, 68); fill-opacity: 1; white-space: pre;">60</text></g><g class="xtick"><text text-anchor="middle" x="0" y="403" transform="translate(420.39,0)" style="font-family: 'Open Sans', verdana, arial, sans-serif; font-size: 12px; fill: rgb(68, 68, 68); fill-opacity: 1; white-space: pre;">80</text></g><g class="xtick"><text text-anchor="middle" x="0" y="403" transform="translate(510.49,0)" style="font-family: 'Open Sans', verdana, arial, sans-serif; font-size: 12px; fill: rgb(68, 68, 68); fill-opacity: 1; white-space: pre;">100</text></g></g><g class="yaxislayer-above"><g class="ytick"><text text-anchor="end" x="59" y="4.199999999999999" transform="translate(0,374.94)" style="font-family: 'Open Sans', verdana, arial, sans-serif; font-size: 12px; fill: rgb(68, 68, 68); fill-opacity: 1; white-space: pre;">0</text></g><g class="ytick"><text text-anchor="end" x="59" y="4.199999999999999" transform="translate(0,293.69)" style="font-family: 'Open Sans', verdana, arial, sans-serif; font-size: 12px; fill: rgb(68, 68, 68); fill-opacity: 1; white-space: pre;">0.05</text></g><g class="ytick"><text text-anchor="end" x="59" y="4.199999999999999" transform="translate(0,212.44)" style="font-family: 'Open Sans', verdana, arial, sans-serif; font-size: 12px; fill: rgb(68, 68, 68); fill-opacity: 1; white-space: pre;">0.1</text></g><g class="ytick"><text text-anchor="end" x="59" y="4.199999999999999" transform="translate(0,131.19)" style="font-family: 'Open Sans', verdana, arial, sans-serif; font-size: 12px; fill: rgb(68, 68, 68); fill-opacity: 1; white-space: pre;">0.15</text></g></g><g class="overaxes-above"/></g></g><g class="polarlayer"/><g class="ternarylayer"/><g class="geolayer"/><g class="pielayer"/><g class="glimages"/><defs id="topdefs-ac5405"><g class="clips"/><clipPath id="legendac5405"><rect width="155" height="143" x="0" y="0"/></clipPath></defs><g class="layer-above"><g class="imagelayer"/><g class="shapelayer"/></g><g class="infolayer"><g class="legend" pointer-events="all" transform="translate(533.28, 60)"><rect class="bg" shape-rendering="crispEdges" width="155" height="143" x="0" y="0" style="stroke: rgb(68, 68, 68); stroke-opacity: 1; fill: rgb(255, 255, 255); fill-opacity: 1; stroke-width: 0px;"/><g class="scrollbox" transform="translate(0, 0)" clip-path="url(#legendac5405)"><g class="groups"><g class="traces" transform="translate(0, 14.5)" style="opacity: 1;"><g class="layers" style="opacity: 1;"><g class="legendfill"/><g class="legendlines"><path class="js-line" d="M5,0h30" style="fill: none; stroke: rgb(31, 119, 180); stroke-opacity: 1; stroke-width: 2px;"/></g><g class="legendsymbols"><g class="legendpoints"/></g></g><text class="legendtext user-select-none" text-anchor="start" x="40" y="4.680000000000001" style="font-family: 'Open Sans', verdana, arial, sans-serif; font-size: 12px; fill: rgb(68, 68, 68); fill-opacity: 1; white-space: pre;">train-total</text><rect class="legendtoggle" pointer-events="all" x="0" y="-9.5" width="195" height="19" style="cursor: pointer; fill: rgb(0, 0, 0); fill-opacity: 0;"/></g><g class="traces" transform="translate(0, 33.5)" style="opacity: 1;"><g class="layers" style="opacity: 1;"><g class="legendfill"/><g class="legendlines"><path class="js-line" d="M5,0h30" style="fill: none; stroke: rgb(255, 127, 14); stroke-opacity: 1; stroke-width: 2px;"/></g><g class="legendsymbols"><g class="legendpoints"/></g></g><text class="legendtext user-select-none" text-anchor="start" x="40" y="4.680000000000001" style="font-family: 'Open Sans', verdana, arial, sans-serif; font-size: 12px; fill: rgb(68, 68, 68); fill-opacity: 1; white-space: pre;">train-mse</text><rect class="legendtoggle" pointer-events="all" x="0" y="-9.5" width="195" height="19" style="cursor: pointer; fill: rgb(0, 0, 0); fill-opacity: 0;"/></g><g class="traces" transform="translate(0, 52.5)" style="opacity: 1;"><g class="layers" style="opacity: 1;"><g class="legendfill"/><g class="legendlines"><path class="js-line" d="M5,0h30" style="fill: none; stroke: rgb(44, 160, 44); stroke-opacity: 1; stroke-width: 2px;"/></g><g class="legendsymbols"><g class="legendpoints"/></g></g><text class="legendtext user-select-none" text-anchor="start" x="40" y="4.680000000000001" style="font-family: 'Open Sans', verdana, arial, sans-serif; font-size: 12px; fill: rgb(68, 68, 68); fill-opacity: 1; white-space: pre;">train-sparse</text><rect class="legendtoggle" pointer-events="all" x="0" y="-9.5" width="195" height="19" style="cursor: pointer; fill: rgb(0, 0, 0); fill-opacity: 0;"/></g><g class="traces" transform="translate(0, 71.5)" style="opacity: 1;"><g class="layers" style="opacity: 1;"><g class="legendfill"/><g class="legendlines"><path class="js-line" d="M5,0h30" style="fill: none; stroke: rgb(214, 39, 40); stroke-opacity: 1; stroke-width: 2px;"/></g><g class="legendsymbols"><g class="legendpoints"/></g></g><text class="legendtext user-select-none" text-anchor="start" x="40" y="4.680000000000001" style="font-family: 'Open Sans', verdana, arial, sans-serif; font-size: 12px; fill: rgb(68, 68, 68); fill-opacity: 1; white-space: pre;">train-classification</text><rect class="legendtoggle" pointer-events="all" x="0" y="-9.5" width="195" height="19" style="cursor: pointer; fill: rgb(0, 0, 0); fill-opacity: 0;"/></g><g class="traces" transform="translate(0, 90.5)" style="opacity: 1;"><g class="layers" style="opacity: 1;"><g class="legendfill"/><g class="legendlines"><path class="js-line" d="M5,0h30" style="fill: none; stroke: rgb(148, 103, 189); stroke-opacity: 1; stroke-width: 2px;"/></g><g class="legendsymbols"><g class="legendpoints"/></g></g><text class="legendtext user-select-none" text-anchor="start" x="40" y="4.680000000000001" style="font-family: 'Open Sans', verdana, arial, sans-serif; font-size: 12px; fill: rgb(68, 68, 68); fill-opacity: 1; white-space: pre;">test-classification</text><rect class="legendtoggle" pointer-events="all" x="0" y="-9.5" width="195" height="19" style="cursor: pointer; fill: rgb(0, 0, 0); fill-opacity: 0;"/></g><g class="traces" transform="translate(0, 109.5)" style="opacity: 1;"><g class="layers" style="opacity: 1;"><g class="legendfill"/><g class="legendlines"><path class="js-line" d="M5,0h30" style="fill: none; stroke: rgb(140, 86, 75); stroke-opacity: 1; stroke-width: 2px;"/></g><g class="legendsymbols"><g class="legendpoints"/></g></g><text class="legendtext user-select-none" text-anchor="start" x="40" y="4.680000000000001" style="font-family: 'Open Sans', verdana, arial, sans-serif; font-size: 12px; fill: rgb(68, 68, 68); fill-opacity: 1; white-space: pre;">test-mse</text><rect class="legendtoggle" pointer-events="all" x="0" y="-9.5" width="195" height="19" style="cursor: pointer; fill: rgb(0, 0, 0); fill-opacity: 0;"/></g><g class="traces" transform="translate(0, 128.5)" style="opacity: 1;"><g class="layers" style="opacity: 1;"><g class="legendfill"/><g class="legendlines"><path class="js-line" d="M5,0h30" style="fill: none; stroke: rgb(227, 119, 194); stroke-opacity: 1; stroke-width: 2px;"/></g><g class="legendsymbols"><g class="legendpoints"/></g></g><text class="legendtext user-select-none" text-anchor="start" x="40" y="4.680000000000001" style="font-family: 'Open Sans', verdana, arial, sans-serif; font-size: 12px; fill: rgb(68, 68, 68); fill-opacity: 1; white-space: pre;">test-total</text><rect class="legendtoggle" pointer-events="all" x="0" y="-9.5" width="195" height="19" style="cursor: pointer; fill: rgb(0, 0, 0); fill-opacity: 0;"/></g></g></g><rect class="scrollbar" rx="20" ry="3" width="0" height="0" x="0" y="0" style="fill: rgb(128, 139, 164); fill-opacity: 1;"/></g><g class="g-gtitle"><text class="gtitle" x="350" y="30" text-anchor="middle" dy="0em" style="font-family: 'Open Sans', verdana, arial, sans-serif; font-size: 17px; fill: rgb(68, 68, 68); opacity: 1; font-weight: normal; white-space: pre;">total loss</text></g><g class="g-xtitle"><text class="xtitle" x="292" y="442" text-anchor="middle" style="font-family: 'Open Sans', verdana, arial, sans-serif; font-size: 14px; fill: rgb(68, 68, 68); opacity: 1; font-weight: normal; white-space: pre;">Epochs</text></g><g class="g-ytitle"><text class="ytitle" transform="rotate(-90,22,225)" x="22" y="225" text-anchor="middle" style="font-family: 'Open Sans', verdana, arial, sans-serif; font-size: 14px; fill: rgb(68, 68, 68); opacity: 1; font-weight: normal; white-space: pre;">total loss</text></g></g></svg>