<svg class="main-svg" xmlns="http://www.w3.org/2000/svg" xmlns:xlink="http://www.w3.org/1999/xlink" width="700" height="450" viewBox="0 0 700 450" style=""><rect x="0" y="0" width="700" height="450" style="fill: rgb(255, 255, 255); fill-opacity: 1;"/><defs id="defs-9af600"><g class="clips"><clipPath id="clip9af600xyplot" class="plotclip"><rect width="547" height="330"/></clipPath><clipPath class="axesclip" id="clip9af600x"><rect x="60" y="0" width="547" height="450"/></clipPath><clipPath class="axesclip" id="clip9af600y"><rect x="0" y="60" width="700" height="330"/></clipPath><clipPath class="axesclip" id="clip9af600xy"><rect x="60" y="60" width="547" height="330"/></clipPath></g><g class="gradients"/></defs><g class="bglayer"/><g class="layer-below"><g class="imagelayer"/><g class="shapelayer"/></g><g class="cartesianlayer"><g class="subplot xy"><g class="layer-subplot"><g class="shapelayer"/><g class="imagelayer"/></g><g class="gridlayer"><g class="x"><path class="xgrid crisp" transform="translate(166.20999999999998,0)" d="M0,60v330" style="stroke: rgb(238, 238, 238); stroke-opacity: 1; stroke-width: 1px;"/><path class="xgrid crisp" transform="translate(272.43,0)" d="M0,60v330" style="stroke: rgb(238, 238, 238); stroke-opacity: 1; stroke-width: 1px;"/><path class="xgrid crisp" transform="translate(378.64,0)" d="M0,60v330" style="stroke: rgb(238, 238, 238); stroke-opacity: 1; stroke-width: 1px;"/><path class="xgrid crisp" transform="translate(484.85,0)" d="M0,60v330" style="stroke: rgb(238, 238, 238); stroke-opacity: 1; stroke-width: 1px;"/><path class="xgrid crisp" transform="translate(591.07,0)" d="M0,60v330" style="stroke: rgb(238, 238, 238); stroke-opacity: 1; stroke-width: 1px;"/></g><g class="y"><path class="ygrid crisp" transform="translate(0,314.1)" d="M60,0h547" style="stroke: rgb(238, 238, 238); stroke-opacity: 1; stroke-width: 1px;"/><path class="ygrid crisp" transform="translate(0,254.7)" d="M60,0h547" style="stroke: rgb(238, 238, 238); stroke-opacity: 1; stroke-width: 1px;"/><path class="ygrid crisp" transform="translate(0,195.3)" d="M60,0h547" style="stroke: rgb(238, 238, 238); stroke-opacity: 1; stroke-width: 1px;"/><path class="ygrid crisp" transform="translate(0,135.9)" d="M60,0h547" style="stroke: rgb(238, 238, 238); stroke-opacity: 1; stroke-width: 1px;"/><path class="ygrid crisp" transform="translate(0,76.5)" d="M60,0h547" style="stroke: rgb(238, 238, 238); stroke-opacity: 1; stroke-width: 1px;"/></g></g><g class="zerolinelayer"><path class="xzl zl crisp" transform="translate(60,0)" d="M0,60v330" style="stroke: rgb(68, 68, 68); stroke-opacity: 1; stroke-width: 1px;"/><path class="yzl zl crisp" transform="translate(0,373.5)" d="M60,0h547" style="stroke: rgb(68, 68, 68); stroke-opacity: 1; stroke-width: 1px;"/></g><path class="xlines-below"/><path class="ylines-below"/><g class="overlines-below"/><g class="xaxislayer-below"/><g class="yaxislayer-below"/><g class="overaxes-below"/><g class="plot" transform="translate(60, 60)" clip-path="url(#clip9af600xyplot)"><g class="scatterlayer mlayer"><g class="trace scatter traceef956a" style="stroke-miterlimit: 2; opacity: 1;"><g class="fills"/><g class="errorbars"/><g class="lines"><path class="js-line" d="M0,313.5L5.31,201.29L5.31,88.73L10.62,75.28L10.62,63.25L15.93,61.2L15.93,68.65L21.24,56.54L21.24,54.55L31.86,51.52L31.86,56.74L37.17,52.41L37.17,57.19L42.49,50.12L42.49,52.35L47.8,50.03L47.8,71.09L53.11,50.21L53.11,52.05L58.42,49.79L58.42,49.2L63.73,74.62L63.73,106.31L69.04,93.45L69.04,58.56L74.35,49.29L74.35,51.84L79.66,62.74L79.66,101.29L84.97,100.25L84.97,100.91L90.28,59.65L90.28,50.8L95.59,49.79L95.59,50.03L100.9,58.11L100.9,103.82L106.21,65.42L106.21,48.37L111.52,79.85L111.52,100.79L116.83,98.65L116.83,101.09L122.15,67.32L122.15,48.31L127.46,48.58L127.46,64.97L132.77,48.93L132.77,49.47L138.08,48.22L138.08,47.86L143.39,48.75L143.39,47.92L148.7,48.67L148.7,52.05L154.01,48.55L154.01,47.71L159.32,48.07L159.32,47.86L164.63,47.45L164.63,48.04L169.94,47.6L169.94,50.36L175.25,48.61L175.25,48.1L180.56,47.98L180.56,47.48L185.87,47.63L185.87,48.1L191.18,48.16L191.18,47.86L196.5,70.49L196.5,100.58L201.81,61.41L201.81,48.69L207.12,47.18L207.12,47.86L212.43,47.66L212.43,47.86L217.74,46.94L217.74,54.93L223.05,47.74L223.05,53.6L228.36,47.45L228.36,48.1L233.67,47.66L233.67,47.86L238.98,47.77L238.98,47.6L244.29,47.74L244.29,51.84L249.6,46.91L249.6,48.04L254.91,47.15L254.91,47.8L260.22,47.21L260.22,46.82L265.53,55.44L265.53,102.72L270.84,47.66L270.84,67.44L276.16,47.45L276.16,47.8L281.47,47.42L281.47,50.42L286.78,47.24L286.78,46.32L292.09,46.94L292.09,47.86L297.4,47.09L297.4,48.43L302.71,47.03L302.71,46.76L308.02,48.04L308.02,48.81L313.33,47.06L313.33,48.04L318.64,47.89L318.64,48.25L323.95,47.42L323.95,47.71L329.26,47.36L329.26,47.8L334.57,47.71L334.57,47.98L339.88,47.45L339.88,46.82L345.19,47.24L345.19,47.8L350.5,46.82L350.5,47.92L355.82,47.3L355.82,62.65L361.13,59.21L361.13,102.45L366.44,71.62L366.44,47.86L371.75,46.7L371.75,48.58L377.06,47.86L387.68,47.57L387.68,47.98L392.99,46.73L392.99,47.8L398.3,48.01L398.3,47.86L403.61,46.94L403.61,49.59L408.92,47.06L408.92,47.98L414.23,47.83L414.23,47.6L419.54,48.07L419.54,47.66L424.85,47.45L430.17,48.4L430.17,47.27L435.48,47.8L440.79,47.12L440.79,47.8L446.1,47.12L446.1,47.66L451.41,47.39L451.41,47.71L456.72,47.18L456.72,49.97L462.03,46.68L462.03,50.03L467.34,46.85L467.34,50.18L472.65,46.79L472.65,48.31L477.96,47.45L477.96,48.31L483.27,47.6L488.58,46.88L488.58,48.04L499.2,47.54L499.2,47.71L504.51,46.97L504.51,47.86L509.83,46.5L509.83,47.71L515.14,46.7L515.14,47.8L520.45,46.82L520.45,47.6L525.76,46.65L531.07,46.88L531.07,49.14L536.38,46.94L536.38,46.65L541.69,47.18L541.69,47.66L547,47L547,47.6" style="vector-effect: non-scaling-stroke; fill: none; stroke: rgb(31, 119, 180); stroke-opacity: 1; stroke-width: 2px; opacity: 1;"/></g><g class="points"/><g class="text"/></g><g class="trace scatter trace339e82" style="stroke-miterlimit: 2; opacity: 1;"><g class="fills"/><g class="errorbars"/><g class="lines"><path class="js-line" d="M0,313.5L5.31,312.02L5.31,312.82L10.62,312.02L10.62,312.76L15.93,312.64L15.93,313.38L21.24,312.82L21.24,313.32L26.55,312.97L26.55,313.23L31.86,312.97L31.86,313.23L37.17,312.91L37.17,313.47L42.49,313.05L42.49,313.32L47.8,313.02L47.8,313.44L53.11,313.05L53.11,313.29L58.42,313.08L58.42,313.29L63.73,313.02L63.73,313.17L69.04,313.02L106.21,313.08L106.21,312.67L116.83,313.29L122.15,313.05L122.15,313.29L127.46,313.14L164.63,313.11L164.63,313.29L185.87,313.14L185.87,313.26L196.5,313.05L196.5,313.29L212.43,312.85L217.74,313.14L217.74,313.29L223.05,313.14L286.78,313.11L286.78,312.52L297.4,313.29L302.71,313.14L408.92,313.29L414.23,313.05L414.23,313.29L419.54,313.14L419.54,313.29L424.85,313.17L547,313.17L547,313.29" style="vector-effect: non-scaling-stroke; fill: none; stroke: rgb(255, 127, 14); stroke-opacity: 1; stroke-width: 2px; opacity: 1;"/></g><g class="points"/><g class="text"/></g><g class="trace scatter trace0375a8" style="stroke-miterlimit: 2; opacity: 1;"><g class="fills"/><g class="errorbars"/><g class="lines"><path class="js-line" d="M5.31,65.68L5.31,26.69L10.62,41.72L10.62,26.33L15.93,30.73L15.93,18.22L21.24,28.08L21.24,18.99L26.55,25.14L26.55,19.92L31.86,25.26L31.86,20.03L37.17,26.33L37.17,16.95L42.49,23.69L42.49,18.82L47.8,24.07L47.8,17.36L53.11,23.63L53.11,19.11L58.42,23.39L58.42,19.02L63.73,24.96L63.73,22.02L69.04,25.53L69.04,22.02L74.35,23.39L74.35,19.17L79.66,24.49L79.66,20.15L84.97,25.08L84.97,23L90.28,23.27L90.28,19.38L95.59,23.6L95.59,19.53L100.9,23.66L100.9,23L106.21,23.6L106.21,26.81L111.52,23.9L111.52,25.74L116.83,24.88L116.83,20.06L122.15,24.1L122.15,19.35L127.46,22.47L127.46,20.36L132.77,23.98L132.77,19.44L138.08,23.12L138.08,19.41L143.39,23L143.39,19.35L148.7,23.09L148.7,21.61L154.01,23.45L154.01,19.41L159.32,23.12L159.32,22.77L164.63,22.8L164.63,19.2L169.94,22.26L169.94,19.53L175.25,23L175.25,20.06L180.56,23.48L180.56,27.25L185.87,22.44L185.87,19.71L191.18,23.51L191.18,27.04L196.5,24.19L196.5,20.06L201.81,24.01L201.81,20.06L207.12,22.41L207.12,19.71L212.43,23.09L212.43,24.76L217.74,22.44L217.74,19.35L223.05,22.2L223.05,19.56L228.36,22.32L228.36,19.5L233.67,22.35L233.67,23.24L238.98,23.03L238.98,19.5L244.29,22.38L244.29,19.11L249.6,23.03L249.6,23.27L254.91,22.71L254.91,21.16L260.22,22.8L260.22,19.47L265.53,23.09L265.53,22.53L270.84,22.89L270.84,17.66L276.16,22.71L276.16,20.27L281.47,22.71L281.47,19.17L286.78,22.65L286.78,28.71L292.09,22.68L292.09,19.5L297.4,22.83L297.4,19.29L302.71,22.29L302.71,19.97L308.02,21.94L308.02,19.23L313.33,22.26L313.33,21.31L318.64,22.47L318.64,20.69L323.95,22.47L323.95,22.08L329.26,22.2L329.26,19.97L334.57,22.5L334.57,21.25L339.88,23.21L339.88,20.12L345.19,22.68L345.19,20.42L350.5,22.11L350.5,19.5L355.82,22.41L355.82,19.38L361.13,22.89L361.13,20.69L366.44,22.59L366.44,19.86L371.75,22.2L371.75,19.8L377.06,21.55L377.06,19.41L382.37,22.74L382.37,19.86L387.68,22.11L387.68,19.35L392.99,21.88L392.99,19.29L398.3,21.58L398.3,19.29L403.61,21.82L403.61,19.5L408.92,22.2L408.92,19.29L414.23,23.75L414.23,19.29L419.54,22.14L419.54,19.35L424.85,21.73L424.85,19.29L430.17,22.59L430.17,19.92L435.48,22.23L435.48,19.29L440.79,21.73L440.79,19.86L446.1,21.37L446.1,19.29L451.41,21.61L451.41,21.37L456.72,21.91L456.72,21.22L462.03,22.35L462.03,19.23L467.34,21.64L467.34,19.29L472.65,21.85L477.96,22.38L477.96,19.29L483.27,22.38L483.27,20.84L488.58,21.46L488.58,22.5L493.89,21.58L493.89,19.35L499.2,22.92L499.2,19.86L504.51,22.26L504.51,19.29L509.83,22.53L509.83,19.71L515.14,21.4L515.14,19.77L520.45,22.08L520.45,19.77L525.76,21.67L525.76,27.73L531.07,21.99L531.07,19.44L536.38,22.11L536.38,20.54L541.69,21.67L541.69,19.71L547,22.02L547,19.29" style="vector-effect: non-scaling-stroke; fill: none; stroke: rgb(44, 160, 44); stroke-opacity: 1; stroke-width: 2px; opacity: 1;"/></g><g class="points"/><g class="text"/></g><g class="trace scatter trace72a625" style="stroke-miterlimit: 2; opacity: 1;"><g class="fills"/><g class="errorbars"/><g class="lines"><path class="js-line" d="M0,16.5L5.31,128.71L5.31,241.27L10.62,254.72L10.62,266.75L15.93,268.8L15.93,261.35L21.24,273.46L21.24,275.45L31.86,278.48L31.86,273.26L37.17,277.59L37.17,272.81L42.49,279.88L42.49,277.65L47.8,279.97L47.8,258.91L53.11,279.79L53.11,277.95L58.42,280.21L58.42,280.8L63.73,255.38L63.73,223.69L69.04,236.55L69.04,271.44L74.35,280.71L74.35,278.16L79.66,267.26L79.66,228.71L84.97,229.75L84.97,229.09L90.28,270.35L90.28,279.2L95.59,280.21L95.59,279.97L100.9,271.89L100.9,226.18L106.21,264.58L106.21,281.63L111.52,250.15L111.52,229.21L116.83,231.35L116.83,228.91L122.15,262.68L122.15,281.69L127.46,281.42L127.46,265.03L132.77,281.07L132.77,280.53L138.08,281.78L138.08,282.14L143.39,281.25L143.39,282.08L148.7,281.33L148.7,277.95L154.01,281.45L154.01,282.29L159.32,281.93L159.32,282.14L164.63,282.55L164.63,281.96L169.94,282.4L169.94,279.64L175.25,281.39L175.25,281.9L180.56,282.02L180.56,282.52L185.87,282.37L185.87,281.9L191.18,281.84L191.18,282.14L196.5,259.51L196.5,229.42L201.81,268.59L201.81,281.31L207.12,282.82L207.12,282.14L212.43,282.34L212.43,282.14L217.74,283.06L217.74,275.07L223.05,282.26L223.05,276.4L228.36,282.55L228.36,281.9L233.67,282.34L233.67,282.14L238.98,282.23L238.98,282.4L244.29,282.26L244.29,278.16L249.6,283.09L249.6,281.96L254.91,282.85L254.91,282.2L260.22,282.79L260.22,283.18L265.53,274.56L265.53,227.28L270.84,282.34L270.84,262.56L276.16,282.55L276.16,282.2L281.47,282.58L281.47,279.58L286.78,282.76L286.78,283.68L292.09,283.06L292.09,282.14L297.4,282.91L297.4,281.57L302.71,282.97L302.71,283.24L308.02,281.96L308.02,281.19L313.33,282.94L313.33,281.96L318.64,282.11L318.64,281.75L323.95,282.58L323.95,282.29L329.26,282.64L329.26,282.2L334.57,282.29L334.57,282.02L339.88,282.55L339.88,283.18L345.19,282.76L345.19,282.2L350.5,283.18L350.5,282.08L355.82,282.7L355.82,267.35L361.13,270.79L361.13,227.55L366.44,258.38L366.44,282.14L371.75,283.3L371.75,281.42L377.06,282.14L387.68,282.43L387.68,282.02L392.99,283.27L392.99,282.2L398.3,281.99L398.3,282.14L403.61,283.06L403.61,280.41L408.92,282.94L408.92,282.02L414.23,282.17L414.23,282.4L419.54,281.93L419.54,282.34L424.85,282.55L424.85,282.4L430.17,281.6L430.17,282.73L435.48,282.23L446.1,282.88L446.1,282.34L456.72,282.82L456.72,280.03L462.03,283.32L462.03,279.97L467.34,283.15L467.34,279.82L472.65,283.21L472.65,281.69L477.96,282.55L477.96,281.69L488.58,283.12L488.58,281.96L499.2,282.46L499.2,282.29L504.51,283.03L504.51,282.14L509.83,283.5L509.83,282.29L515.14,283.3L515.14,282.2L520.45,283.18L520.45,282.4L525.76,283.35L531.07,283.12L531.07,280.86L536.38,283.06L536.38,283.35L541.69,282.82L541.69,282.34L547,283L547,282.4" style="vector-effect: non-scaling-stroke; fill: none; stroke: rgb(214, 39, 40); stroke-opacity: 1; stroke-width: 2px; opacity: 1;"/></g><g class="points"/><g class="text"/></g></g></g><g class="overplot"/><path class="xlines-above crisp" d="M0,0" style="fill: none;"/><path class="ylines-above crisp" d="M0,0" style="fill: none;"/><g class="overlines-above"/><g class="xaxislayer-above"><g class="xtick"><text text-anchor="middle" x="0" y="403" transform="translate(60,0)" style="font-family: 'Open Sans', verdana, arial, sans-serif; font-size: 12px; fill: rgb(68, 68, 68); fill-opacity: 1; white-space: pre;">0</text></g><g class="xtick"><text text-anchor="middle" x="0" y="403" transform="translate(166.20999999999998,0)" style="font-family: 'Open Sans', verdana, arial, sans-serif; font-size: 12px; fill: rgb(68, 68, 68); fill-opacity: 1; white-space: pre;">20</text></g><g class="xtick"><text text-anchor="middle" x="0" y="403" transform="translate(272.43,0)" style="font-family: 'Open Sans', verdana, arial, sans-serif; font-size: 12px; fill: rgb(68, 68, 68); fill-opacity: 1; white-space: pre;">40</text></g><g class="xtick"><text text-anchor="middle" x="0" y="403" transform="translate(378.64,0)" style="font-family: 'Open Sans', verdana, arial, sans-serif; font-size: 12px; fill: rgb(68, 68, 68); fill-opacity: 1; white-space: pre;">60</text></g><g class="xtick"><text text-anchor="middle" x="0" y="403" transform="translate(484.85,0)" style="font-family: 'Open Sans', verdana, arial, sans-serif; font-size: 12px; fill: rgb(68, 68, 68); fill-opacity: 1; white-space: pre;">80</text></g><g class="xtick"><text text-anchor="middle" x="0" y="403" transform="translate(591.07,0)" style="font-family: 'Open Sans', verdana, arial, sans-serif; font-size: 12px; fill: rgb(68, 68, 68); fill-opacity: 1; white-space: pre;">100</text></g></g><g class="yaxislayer-above"><g class="ytick"><text text-anchor="end" x="59" y="4.199999999999999" transform="translate(0,373.5)" style="font-family: 'Open Sans', verdana, arial, sans-serif; font-size: 12px; fill: rgb(68, 68, 68); fill-opacity: 1; white-space: pre;">0</text></g><g class="ytick"><text text-anchor="end" x="59" y="4.199999999999999" transform="translate(0,314.1)" style="font-family: 'Open Sans', verdana, arial, sans-serif; font-size: 12px; fill: rgb(68, 68, 68); fill-opacity: 1; white-space: pre;">0.2</text></g><g class="ytick"><text text-anchor="end" x="59" y="4.199999999999999" transform="translate(0,254.7)" style="font-family: 'Open Sans', verdana, arial, sans-serif; font-size: 12px; fill: rgb(68, 68, 68); fill-opacity: 1; white-space: pre;">0.4</text></g><g class="ytick"><text text-anchor="end" x="59" y="4.199999999999999" transform="translate(0,195.3)" style="font-family: 'Open Sans', verdana, arial, sans-serif; font-size: 12px; fill: rgb(68, 68, 68); fill-opacity: 1; white-space: pre;">0.6</text></g><g class="ytick"><text text-anchor="end" x="59" y="4.199999999999999" transform="translate(0,135.9)" style="font-family: 'Open Sans', verdana, arial, sans-serif; font-size: 12px; fill: rgb(68, 68, 68); fill-opacity: 1; white-space: pre;">0.8</text></g><g class="ytick"><text text-anchor="end" x="59" y="4.199999999999999" transform="translate(0,76.5)" style="font-family: 'Open Sans', verdana, arial, sans-serif; font-size: 12px; fill: rgb(68, 68, 68); fill-opacity: 1; white-space: pre;">1</text></g></g><g class="overaxes-above"/></g></g><g class="polarlayer"/><g class="ternarylayer"/><g class="geolayer"/><g class="pielayer"/><g class="glimages"/><defs id="topdefs-9af600"><g class="clips"/><clipPath id="legend9af600"><rect width="70" height="86" x="0" y="0"/></clipPath></defs><g class="layer-above"><g class="imagelayer"/><g class="shapelayer"/></g><g class="infolayer"><g class="legend" pointer-events="all" transform="translate(617.94, 60)"><rect class="bg" shape-rendering="crispEdges" width="70" height="86" x="0" y="0" style="stroke: rgb(68, 68, 68); stroke-opacity: 1; fill: rgb(255, 255, 255); fill-opacity: 1; stroke-width: 0px;"/><g class="scrollbox" transform="translate(0, 0)" clip-path="url(#legend9af600)"><g class="groups"><g class="traces" transform="translate(0, 14.5)" style="opacity: 1;"><g class="layers" style="opacity: 1;"><g class="legendfill"/><g class="legendlines"><path class="js-line" d="M5,0h30" style="fill: none; stroke: rgb(31, 119, 180); stroke-opacity: 1; stroke-width: 2px;"/></g><g class="legendsymbols"><g class="legendpoints"/></g></g><text class="legendtext user-select-none" text-anchor="start" x="40" y="4.680000000000001" style="font-family: 'Open Sans', verdana, arial, sans-serif; font-size: 12px; fill: rgb(68, 68, 68); fill-opacity: 1; white-space: pre;">TPR</text><rect class="legendtoggle" pointer-events="all" x="0" y="-9.5" width="110" height="19" style="cursor: pointer; fill: rgb(0, 0, 0); fill-opacity: 0;"/></g><g class="traces" transform="translate(0, 33.5)" style="opacity: 1;"><g class="layers" style="opacity: 1;"><g class="legendfill"/><g class="legendlines"><path class="js-line" d="M5,0h30" style="fill: none; stroke: rgb(255, 127, 14); stroke-opacity: 1; stroke-width: 2px;"/></g><g class="legendsymbols"><g class="legendpoints"/></g></g><text class="legendtext user-select-none" text-anchor="start" x="40" y="4.680000000000001" style="font-family: 'Open Sans', verdana, arial, sans-serif; font-size: 12px; fill: rgb(68, 68, 68); fill-opacity: 1; white-space: pre;">FPR</text><rect class="legendtoggle" pointer-events="all" x="0" y="-9.5" width="110" height="19" style="cursor: pointer; fill: rgb(0, 0, 0); fill-opacity: 0;"/></g><g class="traces" transform="translate(0, 52.5)" style="opacity: 1;"><g class="layers" style="opacity: 1;"><g class="legendfill"/><g class="legendlines"><path class="js-line" d="M5,0h30" style="fill: none; stroke: rgb(44, 160, 44); stroke-opacity: 1; stroke-width: 2px;"/></g><g class="legendsymbols"><g class="legendpoints"/></g></g><text class="legendtext user-select-none" text-anchor="start" x="40" y="4.680000000000001" style="font-family: 'Open Sans', verdana, arial, sans-serif; font-size: 12px; fill: rgb(68, 68, 68); fill-opacity: 1; white-space: pre;">PPV</text><rect class="legendtoggle" pointer-events="all" x="0" y="-9.5" width="110" height="19" style="cursor: pointer; fill: rgb(0, 0, 0); fill-opacity: 0;"/></g><g class="traces" transform="translate(0, 71.5)" style="opacity: 1;"><g class="layers" style="opacity: 1;"><g class="legendfill"/><g class="legendlines"><path class="js-line" d="M5,0h30" style="fill: none; stroke: rgb(214, 39, 40); stroke-opacity: 1; stroke-width: 2px;"/></g><g class="legendsymbols"><g class="legendpoints"/></g></g><text class="legendtext user-select-none" text-anchor="start" x="40" y="4.680000000000001" style="font-family: 'Open Sans', verdana, arial, sans-serif; font-size: 12px; fill: rgb(68, 68, 68); fill-opacity: 1; white-space: pre;">FNR</text><rect class="legendtoggle" pointer-events="all" x="0" y="-9.5" width="110" height="19" style="cursor: pointer; fill: rgb(0, 0, 0); fill-opacity: 0;"/></g></g></g><rect class="scrollbar" rx="20" ry="3" width="0" height="0" x="0" y="0" style="fill: rgb(128, 139, 164); fill-opacity: 1;"/></g><g class="g-gtitle"><text class="gtitle" x="350" y="30" text-anchor="middle" dy="0em" style="font-family: 'Open Sans', verdana, arial, sans-serif; font-size: 17px; fill: rgb(68, 68, 68); opacity: 1; font-weight: normal; white-space: pre;">ROC metrics in training</text></g><g class="g-xtitle"><text class="xtitle" x="333.5" y="442" text-anchor="middle" style="font-family: 'Open Sans', verdana, arial, sans-serif; font-size: 14px; fill: rgb(68, 68, 68); opacity: 1; font-weight: normal; white-space: pre;">Epochs</text></g><g class="g-ytitle"><text class="ytitle" transform="rotate(-90,22,225)" x="22" y="225" text-anchor="middle" style="font-family: 'Open Sans', verdana, arial, sans-serif; font-size: 14px; fill: rgb(68, 68, 68); opacity: 1; font-weight: normal; white-space: pre;">rate</text></g></g></svg>