<svg class="main-svg" xmlns="http://www.w3.org/2000/svg" xmlns:xlink="http://www.w3.org/1999/xlink" width="700" height="450" viewBox="0 0 700 450" style=""><rect x="0" y="0" width="700" height="450" style="fill: rgb(255, 255, 255); fill-opacity: 1;"/><defs id="defs-0d2ebd"><g class="clips"><clipPath id="clip0d2ebdxyplot" class="plotclip"><rect width="547" height="330"/></clipPath><clipPath class="axesclip" id="clip0d2ebdx"><rect x="60" y="0" width="547" height="450"/></clipPath><clipPath class="axesclip" id="clip0d2ebdy"><rect x="0" y="60" width="700" height="330"/></clipPath><clipPath class="axesclip" id="clip0d2ebdxy"><rect x="60" y="60" width="547" height="330"/></clipPath></g><g class="gradients"/></defs><g class="bglayer"/><g class="layer-below"><g class="imagelayer"/><g class="shapelayer"/></g><g class="cartesianlayer"><g class="subplot xy"><g class="layer-subplot"><g class="shapelayer"/><g class="imagelayer"/></g><g class="gridlayer"><g class="x"><path class="xgrid crisp" transform="translate(151.17000000000002,0)" d="M0,60v330" style="stroke: rgb(238, 238, 238); stroke-opacity: 1; stroke-width: 1px;"/><path class="xgrid crisp" transform="translate(242.33,0)" d="M0,60v330" style="stroke: rgb(238, 238, 238); stroke-opacity: 1; stroke-width: 1px;"/><path class="xgrid crisp" transform="translate(333.5,0)" d="M0,60v330" style="stroke: rgb(238, 238, 238); stroke-opacity: 1; stroke-width: 1px;"/><path class="xgrid crisp" transform="translate(424.67,0)" d="M0,60v330" style="stroke: rgb(238, 238, 238); stroke-opacity: 1; stroke-width: 1px;"/><path class="xgrid crisp" transform="translate(515.8299999999999,0)" d="M0,60v330" style="stroke: rgb(238, 238, 238); stroke-opacity: 1; stroke-width: 1px;"/></g><g class="y"><path class="ygrid crisp" transform="translate(0,314.06)" d="M60,0h547" style="stroke: rgb(238, 238, 238); stroke-opacity: 1; stroke-width: 1px;"/><path class="ygrid crisp" transform="translate(0,254.63)" d="M60,0h547" style="stroke: rgb(238, 238, 238); stroke-opacity: 1; stroke-width: 1px;"/><path class="ygrid crisp" transform="translate(0,195.19)" d="M60,0h547" style="stroke: rgb(238, 238, 238); stroke-opacity: 1; stroke-width: 1px;"/><path class="ygrid crisp" transform="translate(0,135.76)" d="M60,0h547" style="stroke: rgb(238, 238, 238); stroke-opacity: 1; stroke-width: 1px;"/><path class="ygrid crisp" transform="translate(0,76.32)" d="M60,0h547" style="stroke: rgb(238, 238, 238); stroke-opacity: 1; stroke-width: 1px;"/></g></g><g class="zerolinelayer"><path class="xzl zl crisp" transform="translate(60,0)" d="M0,60v330" style="stroke: rgb(68, 68, 68); stroke-opacity: 1; stroke-width: 1px;"/><path class="yzl zl crisp" transform="translate(0,373.5)" d="M60,0h547" style="stroke: rgb(68, 68, 68); stroke-opacity: 1; stroke-width: 1px;"/></g><path class="xlines-below"/><path class="ylines-below"/><g class="overlines-below"/><g class="xaxislayer-below"/><g class="yaxislayer-below"/><g class="overaxes-below"/><g class="plot" transform="translate(60, 60)" clip-path="url(#clip0d2ebdxyplot)"><g class="scatterlayer mlayer"><g class="trace scatter trace9366d5" style="stroke-miterlimit: 2; opacity: 1;"><g class="fills"/><g class="errorbars"/><g class="lines"><path class="js-line" d="M0,188.83L0,74.36L18.23,59.74L18.23,50.91L36.47,42.98L36.47,46.66L54.7,34L54.7,25.33L72.93,30.73L72.93,42.15L91.17,29.16L91.17,31.33L109.4,27.79L109.4,29.72L127.63,27.85L127.63,23.16L145.87,28.15L145.87,23.34L164.1,27.23L164.1,42.59L182.33,27.08L182.33,24.26L200.57,26.25L200.57,21.23L218.8,25.47L218.8,38.28L237.03,26.49L237.03,23.16L255.27,26.69L255.27,23.66L273.5,26.6L273.5,38.55L291.73,25.53L291.73,42.35L309.97,25.92L309.97,20.96L328.2,26.25L328.2,24.17L346.43,25.65L346.43,48.6L364.67,24.7L364.67,68.77L382.9,24.7L382.9,40.48L401.13,26.87L401.13,113.74L419.37,25.06L419.37,44.79L437.6,26.43L437.6,22.38L455.83,25.09L455.83,48.86L474.07,26.25L474.07,21.17L492.3,25.98L492.3,37.33L510.53,25.45L510.53,45.18L528.77,24.97L528.77,39.2L547,24.58" style="vector-effect: non-scaling-stroke; fill: none; stroke: rgb(31, 119, 180); stroke-opacity: 1; stroke-width: 2px; opacity: 1;"/></g><g class="points"/><g class="text"/></g><g class="trace scatter traceb1e6e9" style="stroke-miterlimit: 2; opacity: 1;"><g class="fills"/><g class="errorbars"/><g class="lines"><path class="js-line" d="M0,311.39L0,313.26L18.23,311.66L18.23,313.35L36.47,312.61L36.47,313.35L54.7,312.88L54.7,313.08L72.93,312.88L72.93,313.32L91.17,312.85L91.17,313.17L109.4,312.91L200.57,312.82L200.57,312.58L255.27,313.08L273.5,312.94L273.5,313.38L291.73,312.97L291.73,312.67L309.97,312.94L309.97,312.49L328.2,312.91L328.2,313.08L346.43,312.82L346.43,313.47L364.67,312.91L364.67,313.26L382.9,312.94L382.9,313.29L401.13,312.99L401.13,313.5L419.37,312.97L419.37,313.29L437.6,312.91L474.07,312.99L474.07,312.55L510.53,313.35L528.77,312.99L528.77,313.29L547,312.99" style="vector-effect: non-scaling-stroke; fill: none; stroke: rgb(255, 127, 14); stroke-opacity: 1; stroke-width: 2px; opacity: 1;"/></g><g class="points"/><g class="text"/></g><g class="trace scatter traceb44b16" style="stroke-miterlimit: 2; opacity: 1;"><g class="fills"/><g class="errorbars"/><g class="lines"><path class="js-line" d="M0,76.2L0,19.56L18.23,45.36L18.23,18.28L36.47,30.38L36.47,18.4L54.7,26.01L54.7,21.34L72.93,25.77L72.93,18.49L91.17,26.19L91.17,20.13L109.4,25.24L109.4,21.49L127.63,25.89L127.63,21.49L145.87,25.18L145.87,20.6L164.1,25.92L164.1,17.09L182.33,25.24L182.33,20.36L200.57,26.37L200.57,26.87L218.8,25.77L218.8,26.4L237.03,23.25L255.27,25.86L255.27,21.31L273.5,24.7L273.5,17.63L291.73,24.43L291.73,26.54L309.97,24.85L309.97,27.7L328.2,25.3L328.2,21.08L346.43,26.57L346.43,16.68L364.67,25.27L364.67,19.5L382.9,24.7L382.9,19.12L401.13,23.81L401.13,16.5L419.37,24.4L419.37,19.09L437.6,25.39L437.6,22.95L455.83,24.7L455.83,16.68L474.07,23.72L474.07,27.23L492.3,25.15L492.3,18.67L510.53,22.89L510.53,18.37L528.77,23.96L528.77,18.94L547,23.96" style="vector-effect: non-scaling-stroke; fill: none; stroke: rgb(44, 160, 44); stroke-opacity: 1; stroke-width: 2px; opacity: 1;"/></g><g class="points"/><g class="text"/></g><g class="trace scatter tracecd22fc" style="stroke-miterlimit: 2; opacity: 1;"><g class="fills"/><g class="errorbars"/><g class="lines"><path class="js-line" d="M0,140.99L0,255.46L18.23,270.08L18.23,278.91L36.47,286.84L36.47,283.16L54.7,295.82L54.7,304.5L72.93,299.09L72.93,287.68L91.17,300.66L91.17,298.49L109.4,302.03L109.4,300.1L127.63,301.97L127.63,306.66L145.87,301.67L145.87,306.49L164.1,302.59L164.1,287.23L182.33,302.74L182.33,305.57L200.57,303.57L200.57,308.6L218.8,304.35L218.8,291.54L237.03,303.34L237.03,306.66L255.27,303.13L255.27,306.16L273.5,303.22L273.5,291.27L291.73,304.29L291.73,287.47L309.97,303.9L309.97,308.86L328.2,303.57L328.2,305.65L346.43,304.17L346.43,281.23L364.67,305.12L364.67,261.05L382.9,305.12L382.9,289.34L401.13,302.95L401.13,216.08L419.37,304.76L419.37,285.03L437.6,303.4L437.6,307.44L455.83,304.73L455.83,280.96L474.07,303.57L474.07,308.66L492.3,303.84L492.3,292.49L510.53,304.38L510.53,284.64L528.77,304.85L528.77,290.62L547,305.24" style="vector-effect: non-scaling-stroke; fill: none; stroke: rgb(214, 39, 40); stroke-opacity: 1; stroke-width: 2px; opacity: 1;"/></g><g class="points"/><g class="text"/></g></g></g><g class="overplot"/><path class="xlines-above crisp" d="M0,0" style="fill: none;"/><path class="ylines-above crisp" d="M0,0" style="fill: none;"/><g class="overlines-above"/><g class="xaxislayer-above"><g class="xtick"><text text-anchor="middle" x="0" y="403" transform="translate(60,0)" style="font-family: 'Open Sans', verdana, arial, sans-serif; font-size: 12px; fill: rgb(68, 68, 68); fill-opacity: 1; white-space: pre;">0</text></g><g class="xtick"><text text-anchor="middle" x="0" y="403" transform="translate(151.17000000000002,0)" style="font-family: 'Open Sans', verdana, arial, sans-serif; font-size: 12px; fill: rgb(68, 68, 68); fill-opacity: 1; white-space: pre;">5</text></g><g class="xtick"><text text-anchor="middle" x="0" y="403" transform="translate(242.33,0)" style="font-family: 'Open Sans', verdana, arial, sans-serif; font-size: 12px; fill: rgb(68, 68, 68); fill-opacity: 1; white-space: pre;">10</text></g><g class="xtick"><text text-anchor="middle" x="0" y="403" transform="translate(333.5,0)" style="font-family: 'Open Sans', verdana, arial, sans-serif; font-size: 12px; fill: rgb(68, 68, 68); fill-opacity: 1; white-space: pre;">15</text></g><g class="xtick"><text text-anchor="middle" x="0" y="403" transform="translate(424.67,0)" style="font-family: 'Open Sans', verdana, arial, sans-serif; font-size: 12px; fill: rgb(68, 68, 68); fill-opacity: 1; white-space: pre;">20</text></g><g class="xtick"><text text-anchor="middle" x="0" y="403" transform="translate(515.8299999999999,0)" style="font-family: 'Open Sans', verdana, arial, sans-serif; font-size: 12px; fill: rgb(68, 68, 68); fill-opacity: 1; white-space: pre;">25</text></g><g class="xtick"><text text-anchor="middle" x="0" y="403" transform="translate(607,0)" style="font-family: 'Open Sans', verdana, arial, sans-serif; font-size: 12px; fill: rgb(68, 68, 68); fill-opacity: 1; white-space: pre;">30</text></g></g><g class="yaxislayer-above"><g class="ytick"><text text-anchor="end" x="59" y="4.199999999999999" transform="translate(0,373.5)" style="font-family: 'Open Sans', verdana, arial, sans-serif; font-size: 12px; fill: rgb(68, 68, 68); fill-opacity: 1; white-space: pre;">0</text></g><g class="ytick"><text text-anchor="end" x="59" y="4.199999999999999" transform="translate(0,314.06)" style="font-family: 'Open Sans', verdana, arial, sans-serif; font-size: 12px; fill: rgb(68, 68, 68); fill-opacity: 1; white-space: pre;">0.2</text></g><g class="ytick"><text text-anchor="end" x="59" y="4.199999999999999" transform="translate(0,254.63)" style="font-family: 'Open Sans', verdana, arial, sans-serif; font-size: 12px; fill: rgb(68, 68, 68); fill-opacity: 1; white-space: pre;">0.4</text></g><g class="ytick"><text text-anchor="end" x="59" y="4.199999999999999" transform="translate(0,195.19)" style="font-family: 'Open Sans', verdana, arial, sans-serif; font-size: 12px; fill: rgb(68, 68, 68); fill-opacity: 1; white-space: pre;">0.6</text></g><g class="ytick"><text text-anchor="end" x="59" y="4.199999999999999" transform="translate(0,135.76)" style="font-family: 'Open Sans', verdana, arial, sans-serif; font-size: 12px; fill: rgb(68, 68, 68); fill-opacity: 1; white-space: pre;">0.8</text></g><g class="ytick"><text text-anchor="end" x="59" y="4.199999999999999" transform="translate(0,76.32)" style="font-family: 'Open Sans', verdana, arial, sans-serif; font-size: 12px; fill: rgb(68, 68, 68); fill-opacity: 1; white-space: pre;">1</text></g></g><g class="overaxes-above"/></g></g><g class="polarlayer"/><g class="ternarylayer"/><g class="geolayer"/><g class="pielayer"/><g class="glimages"/><defs id="topdefs-0d2ebd"><g class="clips"/><clipPath id="legend0d2ebd"><rect width="70" height="86" x="0" y="0"/></clipPath></defs><g class="layer-above"><g class="imagelayer"/><g class="shapelayer"/></g><g class="infolayer"><g class="legend" pointer-events="all" transform="translate(617.94, 60)"><rect class="bg" shape-rendering="crispEdges" width="70" height="86" x="0" y="0" style="stroke: rgb(68, 68, 68); stroke-opacity: 1; fill: rgb(255, 255, 255); fill-opacity: 1; stroke-width: 0px;"/><g class="scrollbox" transform="translate(0, 0)" clip-path="url(#legend0d2ebd)"><g class="groups"><g class="traces" transform="translate(0, 14.5)" style="opacity: 1;"><g class="layers" style="opacity: 1;"><g class="legendfill"/><g class="legendlines"><path class="js-line" d="M5,0h30" style="fill: none; stroke: rgb(31, 119, 180); stroke-opacity: 1; stroke-width: 2px;"/></g><g class="legendsymbols"><g class="legendpoints"/></g></g><text class="legendtext user-select-none" text-anchor="start" x="40" y="4.680000000000001" style="font-family: 'Open Sans', verdana, arial, sans-serif; font-size: 12px; fill: rgb(68, 68, 68); fill-opacity: 1; white-space: pre;">TPR</text><rect class="legendtoggle" pointer-events="all" x="0" y="-9.5" width="110" height="19" style="cursor: pointer; fill: rgb(0, 0, 0); fill-opacity: 0;"/></g><g class="traces" transform="translate(0, 33.5)" style="opacity: 1;"><g class="layers" style="opacity: 1;"><g class="legendfill"/><g class="legendlines"><path class="js-line" d="M5,0h30" style="fill: none; stroke: rgb(255, 127, 14); stroke-opacity: 1; stroke-width: 2px;"/></g><g class="legendsymbols"><g class="legendpoints"/></g></g><text class="legendtext user-select-none" text-anchor="start" x="40" y="4.680000000000001" style="font-family: 'Open Sans', verdana, arial, sans-serif; font-size: 12px; fill: rgb(68, 68, 68); fill-opacity: 1; white-space: pre;">FPR</text><rect class="legendtoggle" pointer-events="all" x="0" y="-9.5" width="110" height="19" style="cursor: pointer; fill: rgb(0, 0, 0); fill-opacity: 0;"/></g><g class="traces" transform="translate(0, 52.5)" style="opacity: 1;"><g class="layers" style="opacity: 1;"><g class="legendfill"/><g class="legendlines"><path class="js-line" d="M5,0h30" style="fill: none; stroke: rgb(44, 160, 44); stroke-opacity: 1; stroke-width: 2px;"/></g><g class="legendsymbols"><g class="legendpoints"/></g></g><text class="legendtext user-select-none" text-anchor="start" x="40" y="4.680000000000001" style="font-family: 'Open Sans', verdana, arial, sans-serif; font-size: 12px; fill: rgb(68, 68, 68); fill-opacity: 1; white-space: pre;">PPV</text><rect class="legendtoggle" pointer-events="all" x="0" y="-9.5" width="110" height="19" style="cursor: pointer; fill: rgb(0, 0, 0); fill-opacity: 0;"/></g><g class="traces" transform="translate(0, 71.5)" style="opacity: 1;"><g class="layers" style="opacity: 1;"><g class="legendfill"/><g class="legendlines"><path class="js-line" d="M5,0h30" style="fill: none; stroke: rgb(214, 39, 40); stroke-opacity: 1; stroke-width: 2px;"/></g><g class="legendsymbols"><g class="legendpoints"/></g></g><text class="legendtext user-select-none" text-anchor="start" x="40" y="4.680000000000001" style="font-family: 'Open Sans', verdana, arial, sans-serif; font-size: 12px; fill: rgb(68, 68, 68); fill-opacity: 1; white-space: pre;">FNR</text><rect class="legendtoggle" pointer-events="all" x="0" y="-9.5" width="110" height="19" style="cursor: pointer; fill: rgb(0, 0, 0); fill-opacity: 0;"/></g></g></g><rect class="scrollbar" rx="20" ry="3" width="0" height="0" x="0" y="0" style="fill: rgb(128, 139, 164); fill-opacity: 1;"/></g><g class="g-gtitle"><text class="gtitle" x="350" y="30" text-anchor="middle" dy="0em" style="font-family: 'Open Sans', verdana, arial, sans-serif; font-size: 17px; fill: rgb(68, 68, 68); opacity: 1; font-weight: normal; white-space: pre;">ROC metrics in training</text></g><g class="g-xtitle"><text class="xtitle" x="333.5" y="442" text-anchor="middle" style="font-family: 'Open Sans', verdana, arial, sans-serif; font-size: 14px; fill: rgb(68, 68, 68); opacity: 1; font-weight: normal; white-space: pre;">Epochs</text></g><g class="g-ytitle"><text class="ytitle" transform="rotate(-90,22,225)" x="22" y="225" text-anchor="middle" style="font-family: 'Open Sans', verdana, arial, sans-serif; font-size: 14px; fill: rgb(68, 68, 68); opacity: 1; font-weight: normal; white-space: pre;">rate</text></g></g></svg>