<svg class="main-svg" xmlns="http://www.w3.org/2000/svg" xmlns:xlink="http://www.w3.org/1999/xlink" width="700" height="450" viewBox="0 0 700 450" style=""><rect x="0" y="0" width="700" height="450" style="fill: rgb(255, 255, 255); fill-opacity: 1;"/><defs id="defs-ecff4b"><g class="clips"><clipPath id="clipecff4bxyplot" class="plotclip"><rect width="547" height="330"/></clipPath><clipPath class="axesclip" id="clipecff4bx"><rect x="60" y="0" width="547" height="450"/></clipPath><clipPath class="axesclip" id="clipecff4by"><rect x="0" y="60" width="700" height="330"/></clipPath><clipPath class="axesclip" id="clipecff4bxy"><rect x="60" y="60" width="547" height="330"/></clipPath></g><g class="gradients"/></defs><g class="bglayer"/><g class="layer-below"><g class="imagelayer"/><g class="shapelayer"/></g><g class="cartesianlayer"><g class="subplot xy"><g class="layer-subplot"><g class="shapelayer"/><g class="imagelayer"/></g><g class="gridlayer"><g class="x"><path class="xgrid crisp" transform="translate(131.97,0)" d="M0,60v330" style="stroke: rgb(238, 238, 238); stroke-opacity: 1; stroke-width: 1px;"/><path class="xgrid crisp" transform="translate(203.95,0)" d="M0,60v330" style="stroke: rgb(238, 238, 238); stroke-opacity: 1; stroke-width: 1px;"/><path class="xgrid crisp" transform="translate(275.91999999999996,0)" d="M0,60v330" style="stroke: rgb(238, 238, 238); stroke-opacity: 1; stroke-width: 1px;"/><path class="xgrid crisp" transform="translate(347.89,0)" d="M0,60v330" style="stroke: rgb(238, 238, 238); stroke-opacity: 1; stroke-width: 1px;"/><path class="xgrid crisp" transform="translate(419.87,0)" d="M0,60v330" style="stroke: rgb(238, 238, 238); stroke-opacity: 1; stroke-width: 1px;"/><path class="xgrid crisp" transform="translate(491.84,0)" d="M0,60v330" style="stroke: rgb(238, 238, 238); stroke-opacity: 1; stroke-width: 1px;"/><path class="xgrid crisp" transform="translate(563.8199999999999,0)" d="M0,60v330" style="stroke: rgb(238, 238, 238); stroke-opacity: 1; stroke-width: 1px;"/></g><g class="y"><path class="ygrid crisp" transform="translate(0,314.1)" d="M60,0h547" style="stroke: rgb(238, 238, 238); stroke-opacity: 1; stroke-width: 1px;"/><path class="ygrid crisp" transform="translate(0,254.7)" d="M60,0h547" style="stroke: rgb(238, 238, 238); stroke-opacity: 1; stroke-width: 1px;"/><path class="ygrid crisp" transform="translate(0,195.3)" d="M60,0h547" style="stroke: rgb(238, 238, 238); stroke-opacity: 1; stroke-width: 1px;"/><path class="ygrid crisp" transform="translate(0,135.9)" d="M60,0h547" style="stroke: rgb(238, 238, 238); stroke-opacity: 1; stroke-width: 1px;"/><path class="ygrid crisp" transform="translate(0,76.5)" d="M60,0h547" style="stroke: rgb(238, 238, 238); stroke-opacity: 1; stroke-width: 1px;"/></g></g><g class="zerolinelayer"><path class="xzl zl crisp" transform="translate(60,0)" d="M0,60v330" style="stroke: rgb(68, 68, 68); stroke-opacity: 1; stroke-width: 1px;"/><path class="yzl zl crisp" transform="translate(0,373.5)" d="M60,0h547" style="stroke: rgb(68, 68, 68); stroke-opacity: 1; stroke-width: 1px;"/></g><path class="xlines-below"/><path class="ylines-below"/><g class="overlines-below"/><g class="xaxislayer-below"/><g class="yaxislayer-below"/><g class="overaxes-below"/><g class="plot" transform="translate(60, 60)" clip-path="url(#clipecff4bxyplot)"><g class="scatterlayer mlayer"><g class="trace scatter tracebd307a" style="stroke-miterlimit: 2; opacity: 1;"><g class="fills"/><g class="errorbars"/><g class="lines"><path class="js-line" d="M0,313.5L165.54,313.5L165.54,313.5L172.74,282.37L172.74,245.52L179.93,237.97L179.93,236.25L187.13,227.28L187.13,232.12L194.33,226.15L194.33,232L201.53,227.34L201.53,232.39L208.72,231.23L208.72,233.22L215.92,233.9L215.92,241.12L223.12,234.41L223.12,241.27L230.32,233.76L230.32,241.45L237.51,232.51L237.51,238.51L244.71,231.17L244.71,235.92L251.91,229.24L251.91,231.23L259.11,228.26L259.11,229.21L266.3,224.76L266.3,226.45L273.5,221.73L273.5,224.64L280.7,219.89L280.7,224.73L287.89,218.25L287.89,223.42L295.09,217.18L295.09,225.41L302.29,216.02L302.29,222.71L309.49,215.99L309.49,223.48L316.68,215.46L316.68,223.95L323.88,215.4L323.88,222.47L331.08,215.16L331.08,222.2L338.28,215.13L338.28,222.32L345.47,215.13L345.47,222.32L352.67,215.19L352.67,221.49L359.87,215.07L359.87,221.25L367.07,215.01L367.07,221.25L374.26,214.9L374.26,220.98L381.46,214.63L381.46,221.25L388.66,214.84L388.66,220.98L395.86,214.72L395.86,220.98L403.05,214.99L403.05,222.02L410.25,215.04L410.25,220.98L417.45,214.99L417.45,220.98L424.64,215.1L424.64,220.98L431.84,215.07L431.84,220.93L439.04,214.87L439.04,220.93L446.24,214.84L446.24,220.98L453.43,215.28L453.43,220.93L460.63,214.9L460.63,220.93L467.83,215.04L467.83,220.98L475.03,215.07L475.03,220.98L482.22,215.13L482.22,220.98L489.42,214.93L489.42,220.93L496.62,215.25L496.62,220.98L503.82,215.52L503.82,221.25L511.01,215.28L511.01,220.98L518.21,215.22L518.21,220.98L525.41,215.61L525.41,221.25L532.61,215.64L532.61,220.93L539.8,215.64L539.8,221.16L547,215.55L547,220.93" style="vector-effect: non-scaling-stroke; fill: none; stroke: rgb(31, 119, 180); stroke-opacity: 1; stroke-width: 2px; opacity: 1;"/></g><g class="points"/><g class="text"/></g><g class="trace scatter trace6cf044" style="stroke-miterlimit: 2; opacity: 1;"><g class="fills"/><g class="errorbars"/><g class="lines"><path class="js-line" d="M0,313.5L179.93,312.94L179.93,312.7L215.92,312.85L223.12,313.08L251.91,313.32L259.11,313.32L547,313.32L547,313.17" style="vector-effect: non-scaling-stroke; fill: none; stroke: rgb(255, 127, 14); stroke-opacity: 1; stroke-width: 2px; opacity: 1;"/></g><g class="points"/><g class="text"/></g><g class="trace scatter trace991d4c" style="stroke-miterlimit: 2; opacity: 1;"><g class="fills"/><g class="errorbars"/><g class="lines"><path class="js-line" d="M172.74,17.81L172.74,19.29L179.93,46.62L179.93,48.9L187.13,55.76L187.13,45.93L194.33,53.33L194.33,44.54L201.53,53.33L201.53,44.48L208.72,52.64L208.72,44.74L215.92,46.08L215.92,44.51L223.12,38.3L223.12,37.2L230.32,31.35L230.32,16.5L237.51,29.09L237.51,16.77L244.71,26.78L244.71,20.39L251.91,26.57L251.91,23.54L259.11,25.26L259.11,23.36L266.3,25.53L266.3,21.91L273.5,26L273.5,23.45L280.7,25.32L280.7,23.03L287.89,24.88L287.89,23.33L295.09,24.93L295.09,22.05L302.29,25.47L302.29,23.09L309.49,24.85L309.49,21.31L316.68,25.11L316.68,21.34L323.88,25.41L323.88,23.06L331.08,25.86L331.08,23.66L338.28,26.09L338.28,23.45L345.47,25.56L345.47,24.25L352.67,25.62L352.67,24.4L359.87,25.94L359.87,26.12L367.07,25.86L374.26,26.39L374.26,24.34L381.46,26.03L381.46,24.37L388.66,26L388.66,25.53L395.86,25.59L395.86,25.91L403.05,25.38L403.05,24.04L410.25,25.53L410.25,25.71L417.45,24.99L417.45,24.34L424.64,25.14L424.64,26.3L431.84,24.99L431.84,24.34L439.04,25.38L439.04,24.34L446.24,24.58L446.24,26.48L453.43,24.46L475.03,24.37L475.03,25.53L482.22,24.34L489.42,24.19L496.62,24.55L496.62,26.87L503.82,24.01L503.82,24.76L511.01,24.13L511.01,24.34L518.21,23.9L518.21,24.16L525.41,23.54L525.41,25.94L532.61,24.16L532.61,26.48L539.8,24.01L539.8,27.67L547,24.4L547,28.02" style="vector-effect: non-scaling-stroke; fill: none; stroke: rgb(44, 160, 44); stroke-opacity: 1; stroke-width: 2px; opacity: 1;"/></g><g class="points"/><g class="text"/></g><g class="trace scatter trace49bf13" style="stroke-miterlimit: 2; opacity: 1;"><g class="fills"/><g class="errorbars"/><g class="lines"><path class="js-line" d="M0,16.5L165.54,16.5L165.54,16.5L172.74,47.63L172.74,84.48L179.93,92.03L179.93,93.75L187.13,102.72L187.13,97.88L194.33,103.85L194.33,98L201.53,102.66L201.53,97.61L208.72,98.77L208.72,96.78L215.92,96.1L215.92,88.88L223.12,95.59L223.12,88.73L230.32,96.24L230.32,88.55L237.51,97.49L237.51,91.49L244.71,98.83L244.71,94.08L251.91,100.76L251.91,98.77L259.11,101.74L259.11,100.79L266.3,105.24L266.3,103.55L273.5,108.27L273.5,105.36L280.7,110.11L280.7,105.27L287.89,111.75L287.89,106.58L295.09,112.82L295.09,104.59L302.29,113.98L302.29,107.29L309.49,114.01L309.49,106.52L316.68,114.54L316.68,106.05L323.88,114.6L323.88,107.53L331.08,114.84L331.08,107.8L338.28,114.87L338.28,107.68L345.47,114.87L345.47,107.68L352.67,114.81L352.67,108.51L359.87,114.93L359.87,108.75L367.07,114.99L367.07,108.75L374.26,115.1L374.26,109.02L381.46,115.37L381.46,108.75L388.66,115.16L388.66,109.02L395.86,115.28L395.86,109.02L403.05,115.01L403.05,107.98L410.25,114.96L410.25,109.02L417.45,115.01L417.45,109.02L424.64,114.9L424.64,109.02L431.84,114.93L431.84,109.07L439.04,115.13L439.04,109.07L446.24,115.16L446.24,109.02L453.43,114.72L453.43,109.07L460.63,115.1L460.63,109.07L467.83,114.96L467.83,109.02L475.03,114.93L475.03,109.02L482.22,114.87L482.22,109.02L489.42,115.07L489.42,109.07L496.62,114.75L496.62,109.02L503.82,114.48L503.82,108.75L511.01,114.72L511.01,109.02L518.21,114.78L518.21,109.02L525.41,114.39L525.41,108.75L532.61,114.36L532.61,109.07L539.8,114.36L539.8,108.84L547,114.45L547,109.07" style="vector-effect: non-scaling-stroke; fill: none; stroke: rgb(214, 39, 40); stroke-opacity: 1; stroke-width: 2px; opacity: 1;"/></g><g class="points"/><g class="text"/></g></g></g><g class="overplot"/><path class="xlines-above crisp" d="M0,0" style="fill: none;"/><path class="ylines-above crisp" d="M0,0" style="fill: none;"/><g class="overlines-above"/><g class="xaxislayer-above"><g class="xtick"><text text-anchor="middle" x="0" y="403" transform="translate(60,0)" style="font-family: 'Open Sans', verdana, arial, sans-serif; font-size: 12px; fill: rgb(68, 68, 68); fill-opacity: 1; white-space: pre;">0</text></g><g class="xtick"><text text-anchor="middle" x="0" y="403" transform="translate(131.97,0)" style="font-family: 'Open Sans', verdana, arial, sans-serif; font-size: 12px; fill: rgb(68, 68, 68); fill-opacity: 1; white-space: pre;">10</text></g><g class="xtick"><text text-anchor="middle" x="0" y="403" transform="translate(203.95,0)" style="font-family: 'Open Sans', verdana, arial, sans-serif; font-size: 12px; fill: rgb(68, 68, 68); fill-opacity: 1; white-space: pre;">20</text></g><g class="xtick"><text text-anchor="middle" x="0" y="403" transform="translate(275.91999999999996,0)" style="font-family: 'Open Sans', verdana, arial, sans-serif; font-size: 12px; fill: rgb(68, 68, 68); fill-opacity: 1; white-space: pre;">30</text></g><g class="xtick"><text text-anchor="middle" x="0" y="403" transform="translate(347.89,0)" style="font-family: 'Open Sans', verdana, arial, sans-serif; font-size: 12px; fill: rgb(68, 68, 68); fill-opacity: 1; white-space: pre;">40</text></g><g class="xtick"><text text-anchor="middle" x="0" y="403" transform="translate(419.87,0)" style="font-family: 'Open Sans', verdana, arial, sans-serif; font-size: 12px; fill: rgb(68, 68, 68); fill-opacity: 1; white-space: pre;">50</text></g><g class="xtick"><text text-anchor="middle" x="0" y="403" transform="translate(491.84,0)" style="font-family: 'Open Sans', verdana, arial, sans-serif; font-size: 12px; fill: rgb(68, 68, 68); fill-opacity: 1; white-space: pre;">60</text></g><g class="xtick"><text text-anchor="middle" x="0" y="403" transform="translate(563.8199999999999,0)" style="font-family: 'Open Sans', verdana, arial, sans-serif; font-size: 12px; fill: rgb(68, 68, 68); fill-opacity: 1; white-space: pre;">70</text></g></g><g class="yaxislayer-above"><g class="ytick"><text text-anchor="end" x="59" y="4.199999999999999" transform="translate(0,373.5)" style="font-family: 'Open Sans', verdana, arial, sans-serif; font-size: 12px; fill: rgb(68, 68, 68); fill-opacity: 1; white-space: pre;">0</text></g><g class="ytick"><text text-anchor="end" x="59" y="4.199999999999999" transform="translate(0,314.1)" style="font-family: 'Open Sans', verdana, arial, sans-serif; font-size: 12px; fill: rgb(68, 68, 68); fill-opacity: 1; white-space: pre;">0.2</text></g><g class="ytick"><text text-anchor="end" x="59" y="4.199999999999999" transform="translate(0,254.7)" style="font-family: 'Open Sans', verdana, arial, sans-serif; font-size: 12px; fill: rgb(68, 68, 68); fill-opacity: 1; white-space: pre;">0.4</text></g><g class="ytick"><text text-anchor="end" x="59" y="4.199999999999999" transform="translate(0,195.3)" style="font-family: 'Open Sans', verdana, arial, sans-serif; font-size: 12px; fill: rgb(68, 68, 68); fill-opacity: 1; white-space: pre;">0.6</text></g><g class="ytick"><text text-anchor="end" x="59" y="4.199999999999999" transform="translate(0,135.9)" style="font-family: 'Open Sans', verdana, arial, sans-serif; font-size: 12px; fill: rgb(68, 68, 68); fill-opacity: 1; white-space: pre;">0.8</text></g><g class="ytick"><text text-anchor="end" x="59" y="4.199999999999999" transform="translate(0,76.5)" style="font-family: 'Open Sans', verdana, arial, sans-serif; font-size: 12px; fill: rgb(68, 68, 68); fill-opacity: 1; white-space: pre;">1</text></g></g><g class="overaxes-above"/></g></g><g class="polarlayer"/><g class="ternarylayer"/><g class="geolayer"/><g class="pielayer"/><g class="glimages"/><defs id="topdefs-ecff4b"><g class="clips"/><clipPath id="legendecff4b"><rect width="70" height="86" x="0" y="0"/></clipPath></defs><g class="layer-above"><g class="imagelayer"/><g class="shapelayer"/></g><g class="infolayer"><g class="legend" pointer-events="all" transform="translate(617.94, 60)"><rect class="bg" shape-rendering="crispEdges" width="70" height="86" x="0" y="0" style="stroke: rgb(68, 68, 68); stroke-opacity: 1; fill: rgb(255, 255, 255); fill-opacity: 1; stroke-width: 0px;"/><g class="scrollbox" transform="translate(0, 0)" clip-path="url(#legendecff4b)"><g class="groups"><g class="traces" transform="translate(0, 14.5)" style="opacity: 1;"><g class="layers" style="opacity: 1;"><g class="legendfill"/><g class="legendlines"><path class="js-line" d="M5,0h30" style="fill: none; stroke: rgb(31, 119, 180); stroke-opacity: 1; stroke-width: 2px;"/></g><g class="legendsymbols"><g class="legendpoints"/></g></g><text class="legendtext user-select-none" text-anchor="start" x="40" y="4.680000000000001" style="font-family: 'Open Sans', verdana, arial, sans-serif; font-size: 12px; fill: rgb(68, 68, 68); fill-opacity: 1; white-space: pre;">TPR</text><rect class="legendtoggle" pointer-events="all" x="0" y="-9.5" width="110" height="19" style="cursor: pointer; fill: rgb(0, 0, 0); fill-opacity: 0;"/></g><g class="traces" transform="translate(0, 33.5)" style="opacity: 1;"><g class="layers" style="opacity: 1;"><g class="legendfill"/><g class="legendlines"><path class="js-line" d="M5,0h30" style="fill: none; stroke: rgb(255, 127, 14); stroke-opacity: 1; stroke-width: 2px;"/></g><g class="legendsymbols"><g class="legendpoints"/></g></g><text class="legendtext user-select-none" text-anchor="start" x="40" y="4.680000000000001" style="font-family: 'Open Sans', verdana, arial, sans-serif; font-size: 12px; fill: rgb(68, 68, 68); fill-opacity: 1; white-space: pre;">FPR</text><rect class="legendtoggle" pointer-events="all" x="0" y="-9.5" width="110" height="19" style="cursor: pointer; fill: rgb(0, 0, 0); fill-opacity: 0;"/></g><g class="traces" transform="translate(0, 52.5)" style="opacity: 1;"><g class="layers" style="opacity: 1;"><g class="legendfill"/><g class="legendlines"><path class="js-line" d="M5,0h30" style="fill: none; stroke: rgb(44, 160, 44); stroke-opacity: 1; stroke-width: 2px;"/></g><g class="legendsymbols"><g class="legendpoints"/></g></g><text class="legendtext user-select-none" text-anchor="start" x="40" y="4.680000000000001" style="font-family: 'Open Sans', verdana, arial, sans-serif; font-size: 12px; fill: rgb(68, 68, 68); fill-opacity: 1; white-space: pre;">PPV</text><rect class="legendtoggle" pointer-events="all" x="0" y="-9.5" width="110" height="19" style="cursor: pointer; fill: rgb(0, 0, 0); fill-opacity: 0;"/></g><g class="traces" transform="translate(0, 71.5)" style="opacity: 1;"><g class="layers" style="opacity: 1;"><g class="legendfill"/><g class="legendlines"><path class="js-line" d="M5,0h30" style="fill: none; stroke: rgb(214, 39, 40); stroke-opacity: 1; stroke-width: 2px;"/></g><g class="legendsymbols"><g class="legendpoints"/></g></g><text class="legendtext user-select-none" text-anchor="start" x="40" y="4.680000000000001" style="font-family: 'Open Sans', verdana, arial, sans-serif; font-size: 12px; fill: rgb(68, 68, 68); fill-opacity: 1; white-space: pre;">FNR</text><rect class="legendtoggle" pointer-events="all" x="0" y="-9.5" width="110" height="19" style="cursor: pointer; fill: rgb(0, 0, 0); fill-opacity: 0;"/></g></g></g><rect class="scrollbar" rx="20" ry="3" width="0" height="0" x="0" y="0" style="fill: rgb(128, 139, 164); fill-opacity: 1;"/></g><g class="g-gtitle"><text class="gtitle" x="350" y="30" text-anchor="middle" dy="0em" style="font-family: 'Open Sans', verdana, arial, sans-serif; font-size: 17px; fill: rgb(68, 68, 68); opacity: 1; font-weight: normal; white-space: pre;">ROC metrics in training</text></g><g class="g-xtitle"><text class="xtitle" x="333.5" y="442" text-anchor="middle" style="font-family: 'Open Sans', verdana, arial, sans-serif; font-size: 14px; fill: rgb(68, 68, 68); opacity: 1; font-weight: normal; white-space: pre;">Epochs</text></g><g class="g-ytitle"><text class="ytitle" transform="rotate(-90,22,225)" x="22" y="225" text-anchor="middle" style="font-family: 'Open Sans', verdana, arial, sans-serif; font-size: 14px; fill: rgb(68, 68, 68); opacity: 1; font-weight: normal; white-space: pre;">rate</text></g></g></svg>